# Blender 4.0.1
# www.blender.org
mtllib finishLine.mtl
o Plane.001
v -0.750000 0.344360 -0.750000
v 0.750000 0.344360 -0.750000
v -0.750000 0.455640 -0.750000
v 0.750000 0.455640 -0.750000
v -0.750000 0.344360 0.750000
v 0.750000 0.344360 0.750000
v -0.750000 0.455640 0.750000
v 0.750000 0.455640 0.750000
v 0.750000 0.344360 -0.750000
v 0.750000 0.344360 0.750000
v 0.750000 0.455640 -0.750000
v 0.750000 0.455640 0.750000
v -0.750000 0.344360 -0.750000
v -0.750000 0.344360 0.750000
v -0.750000 0.455640 -0.750000
v -0.750000 0.455640 0.750000
vn -0.0000 -0.0000 1.0000
vn -1.0000 -0.0000 -0.0000
vt 0.002697 0.599442
vt 1.002325 0.599588
vt 1.002632 0.798266
vt 0.002681 0.799168
vt 0.000171 0.800740
vt 0.999698 0.800392
vt 0.999921 0.999926
vt 0.000182 1.000390
vt 0.001763 0.200764
vt 1.000817 0.201172
vt 1.001176 0.401555
vt 0.001849 0.401968
vt 0.000467 0.403105
vt 0.999913 0.402973
vt 0.999659 0.602293
vt 0.000486 0.603248
s 0
usemtl chess.jpg
f 1/1/1 2/2/1 4/3/1 3/4/1
f 5/5/1 6/6/1 8/7/1 7/8/1
f 9/9/2 10/10/2 12/11/2 11/12/2
f 13/13/2 14/14/2 16/15/2 15/16/2
