# Blender v2.79 (sub 0) OBJ File: 'Wall.blend'
# www.blender.org
mtllib Wall.mtl
o Cube.001_Cube.002
v -10.000000 0.000000 1.000000
v -10.000000 10.000000 1.000000
v -10.000000 0.000000 -1.000000
v -10.000000 10.000000 -1.000000
v 10.000000 0.000000 1.000000
v 10.000000 10.000000 1.000000
v 10.000000 0.000000 -1.000000
v 10.000000 10.000000 -1.000000
v -10.000001 10.000000 1.000000
v -10.000001 12.000000 1.000000
v -10.000001 10.000000 -1.000000
v -10.000001 12.000000 -1.000000
v -8.000001 10.000000 1.000000
v -8.000001 12.000000 1.000000
v -8.000001 10.000000 -1.000000
v -8.000001 12.000000 -1.000000
v -6.000001 10.000000 1.000000
v -6.000001 12.000000 1.000000
v -6.000001 10.000000 -1.000000
v -6.000001 12.000000 -1.000000
v -4.000001 10.000000 1.000000
v -4.000001 12.000000 1.000000
v -4.000001 10.000000 -1.000000
v -4.000001 12.000000 -1.000000
v -2.000001 10.000000 1.000000
v -2.000001 12.000000 1.000000
v -2.000001 10.000000 -1.000000
v -2.000001 12.000000 -1.000000
v -0.000001 10.000000 1.000000
v -0.000001 12.000000 1.000000
v -0.000001 10.000000 -1.000000
v -0.000001 12.000000 -1.000000
v 1.999999 10.000000 1.000000
v 1.999999 12.000000 1.000000
v 1.999999 10.000000 -1.000000
v 1.999999 12.000000 -1.000000
v 3.999999 10.000000 1.000000
v 3.999999 12.000000 1.000000
v 3.999999 10.000000 -1.000000
v 3.999999 12.000000 -1.000000
v 5.999999 10.000000 1.000000
v 5.999999 12.000000 1.000000
v 5.999999 10.000000 -1.000000
v 5.999999 12.000000 -1.000000
v 8.000000 10.000000 1.000000
v 8.000000 12.000000 1.000000
v 8.000000 10.000000 -1.000000
v 8.000000 12.000000 -1.000000
vt 0.749950 0.999900
vt 0.250050 0.000100
vt 0.749950 0.000100
vt 1.500000 1.000000
vt -0.500000 0.000000
vt 1.500000 0.000000
vt 0.750000 1.000000
vt 0.250000 0.000000
vt 0.750000 0.000000
vt 1.500000 1.000000
vt -0.500000 0.000000
vt 1.500000 0.000000
vt 1.000000 0.000000
vt 0.000000 1.000000
vt 0.000000 0.000000
vt 2.000000 0.350000
vt -1.000000 0.650000
vt -1.000000 0.350000
vt 0.375000 0.375000
vt 0.625000 0.625000
vt 0.375000 0.625000
vt 0.375000 0.375000
vt 0.625000 0.625000
vt 0.375000 0.625000
vt 0.375000 0.375000
vt 0.625000 0.625000
vt 0.375000 0.625000
vt 0.375000 0.375000
vt 0.625000 0.625000
vt 0.375000 0.625000
vt 0.625000 0.375000
vt 0.375000 0.375000
vt 0.625000 0.375000
vt 0.375000 0.625000
vt 0.375000 0.375000
vt 0.625000 0.625000
vt 0.375000 0.625000
vt 0.375000 0.375000
vt 0.625000 0.625000
vt 0.375000 0.625000
vt 0.375000 0.375000
vt 0.625000 0.625000
vt 0.375000 0.625000
vt 0.375000 0.375000
vt 0.625000 0.625000
vt 0.375000 0.625000
vt 0.625000 0.375000
vt 0.375000 0.375000
vt 0.625000 0.375000
vt 0.375000 0.625000
vt 0.375000 0.375000
vt 0.625000 0.625000
vt 0.375000 0.625000
vt 0.375000 0.375000
vt 0.625000 0.625000
vt 0.375000 0.625000
vt 0.375000 0.375000
vt 0.625000 0.625000
vt 0.375000 0.625000
vt 0.375000 0.375000
vt 0.625000 0.625000
vt 0.375000 0.625000
vt 0.625000 0.375000
vt 0.375000 0.375000
vt 0.625000 0.375000
vt 0.375000 0.625000
vt 0.375000 0.375000
vt 0.625000 0.625000
vt 0.375000 0.625000
vt 0.375000 0.375000
vt 0.625000 0.625000
vt 0.375000 0.625000
vt 0.375000 0.375000
vt 0.625000 0.625000
vt 0.375000 0.625000
vt 0.375000 0.375000
vt 0.625000 0.625000
vt 0.375000 0.625000
vt 0.625000 0.375000
vt 0.375000 0.375000
vt 0.625000 0.375000
vt 0.375000 0.625000
vt 0.375000 0.375000
vt 0.625000 0.625000
vt 0.375000 0.625000
vt 0.375000 0.375000
vt 0.625000 0.625000
vt 0.375000 0.625000
vt 0.375000 0.375000
vt 0.625000 0.625000
vt 0.375000 0.625000
vt 0.375000 0.375000
vt 0.625000 0.625000
vt 0.375000 0.625000
vt 0.625000 0.375000
vt 0.375000 0.375000
vt 0.625000 0.375000
vt 0.375000 0.625000
vt 0.250050 0.999900
vt -0.500000 1.000000
vt 0.250000 1.000000
vt -0.500000 1.000000
vt 1.000000 1.000000
vt 2.000000 0.650000
vt 0.625000 0.375000
vt 0.625000 0.375000
vt 0.625000 0.375000
vt 0.625000 0.625000
vt 0.625000 0.375000
vt 0.625000 0.375000
vt 0.625000 0.375000
vt 0.625000 0.625000
vt 0.625000 0.375000
vt 0.625000 0.375000
vt 0.625000 0.375000
vt 0.625000 0.625000
vt 0.625000 0.375000
vt 0.625000 0.375000
vt 0.625000 0.375000
vt 0.625000 0.625000
vt 0.625000 0.375000
vt 0.625000 0.375000
vt 0.625000 0.375000
vt 0.625000 0.625000
vn -1.0000 0.0000 0.0000
vn 0.0000 0.0000 -1.0000
vn 1.0000 0.0000 0.0000
vn 0.0000 0.0000 1.0000
vn 0.0000 -1.0000 0.0000
vn 0.0000 1.0000 0.0000
usemtl Material.002
s off
f 2/1/1 3/2/1 1/3/1
f 4/4/2 7/5/2 3/6/2
f 8/7/3 5/8/3 7/9/3
f 6/10/4 1/11/4 5/12/4
f 7/13/5 1/14/5 3/15/5
f 4/16/6 6/17/6 8/18/6
f 10/19/1 11/20/1 9/21/1
f 12/22/2 15/23/2 11/24/2
f 16/25/3 13/26/3 15/27/3
f 14/28/4 9/29/4 13/30/4
f 15/31/5 9/21/5 11/32/5
f 12/33/6 14/34/6 16/25/6
f 18/35/1 19/36/1 17/37/1
f 20/38/2 23/39/2 19/40/2
f 24/41/3 21/42/3 23/43/3
f 22/44/4 17/45/4 21/46/4
f 23/47/5 17/37/5 19/48/5
f 20/49/6 22/50/6 24/41/6
f 26/51/1 27/52/1 25/53/1
f 28/54/2 31/55/2 27/56/2
f 32/57/3 29/58/3 31/59/3
f 30/60/4 25/61/4 29/62/4
f 31/63/5 25/53/5 27/64/5
f 28/65/6 30/66/6 32/57/6
f 34/67/1 35/68/1 33/69/1
f 36/70/2 39/71/2 35/72/2
f 40/73/3 37/74/3 39/75/3
f 38/76/4 33/77/4 37/78/4
f 39/79/5 33/69/5 35/80/5
f 36/81/6 38/82/6 40/73/6
f 42/83/1 43/84/1 41/85/1
f 44/86/2 47/87/2 43/88/2
f 48/89/3 45/90/3 47/91/3
f 46/92/4 41/93/4 45/94/4
f 47/95/5 41/85/5 43/96/5
f 44/97/6 46/98/6 48/89/6
f 2/1/1 4/99/1 3/2/1
f 4/4/2 8/100/2 7/5/2
f 8/7/3 6/101/3 5/8/3
f 6/10/4 2/102/4 1/11/4
f 7/13/5 5/103/5 1/14/5
f 4/16/6 2/104/6 6/17/6
f 10/19/1 12/33/1 11/20/1
f 12/22/2 16/105/2 15/23/2
f 16/25/3 14/106/3 13/26/3
f 14/28/4 10/107/4 9/29/4
f 15/31/5 13/26/5 9/21/5
f 12/33/6 10/108/6 14/34/6
f 18/35/1 20/49/1 19/36/1
f 20/38/2 24/109/2 23/39/2
f 24/41/3 22/110/3 21/42/3
f 22/44/4 18/111/4 17/45/4
f 23/47/5 21/42/5 17/37/5
f 20/49/6 18/112/6 22/50/6
f 26/51/1 28/65/1 27/52/1
f 28/54/2 32/113/2 31/55/2
f 32/57/3 30/114/3 29/58/3
f 30/60/4 26/115/4 25/61/4
f 31/63/5 29/58/5 25/53/5
f 28/65/6 26/116/6 30/66/6
f 34/67/1 36/81/1 35/68/1
f 36/70/2 40/117/2 39/71/2
f 40/73/3 38/118/3 37/74/3
f 38/76/4 34/119/4 33/77/4
f 39/79/5 37/74/5 33/69/5
f 36/81/6 34/120/6 38/82/6
f 42/83/1 44/97/1 43/84/1
f 44/86/2 48/121/2 47/87/2
f 48/89/3 46/122/3 45/90/3
f 46/92/4 42/123/4 41/93/4
f 47/95/5 45/90/5 41/85/5
f 44/97/6 42/124/6 46/98/6
